<svg xmlns="http://www.w3.org/2000/svg" viewBox="0 0 128 128" width="1200" height="1200">
  <rect width="128" height="128" rx="12" fill="url(#grad)"></rect>
  <defs>
    <linearGradient id="grad" x1="0" y1="0" x2="128" y2="128" gradientUnits="userSpaceOnUse">
      <stop offset="0%" stop-color="#6EE7B7"></stop>
      <stop offset="100%" stop-color="#3B82F6"></stop>
    </linearGradient>
  </defs>
  
  <!-- Browser header -->
  <rect x="12" y="16" width="104" height="10" rx="2" fill="#fff" opacity="0.8"></rect>
  <circle cx="18" cy="21" r="2" fill="#F87171"></circle>
  <circle cx="25" cy="21" r="2" fill="#FBBF24"></circle>
  <circle cx="32" cy="21" r="2" fill="#34D399"></circle>

  <!-- Layout wireframe -->
  <rect x="16" y="34" width="96" height="78" rx="4" fill="#fff" opacity="0.95"></rect>
  <rect x="22" y="42" width="36" height="24" rx="2" fill="#93C5FD"></rect>
  <rect x="64" y="42" width="42" height="6" rx="1" fill="#BFDBFE"></rect>
  <rect x="64" y="52" width="42" height="6" rx="1" fill="#BFDBFE"></rect>
  <rect x="64" y="62" width="28" height="6" rx="1" fill="#BFDBFE"></rect>

  <!-- Buttons -->
  <rect x="22" y="72" width="84" height="6" rx="1" fill="#A7F3D0"></rect>
  <rect x="22" y="82" width="60" height="6" rx="1" fill="#A7F3D0"></rect>
  <rect x="22" y="92" width="40" height="6" rx="1" fill="#A7F3D0"></rect>
</svg>
